HIERARCHY
ROOT Hips
{
	OFFSET 0.000000 0.000000 0.000000
	CHANNELS 6 Xposition Yposition Zposition Zrotation Yrotation Xrotation
	JOINT LHipJoint
	{
		OFFSET 0.000000 0.000000 0.000000
		CHANNELS 3 Zrotation Yrotation Xrotation
		JOINT LeftUpLeg
		{
			OFFSET 1.363060 -1.794630 0.839290
			CHANNELS 3 Zrotation Yrotation Xrotation
			JOINT LeftLeg
			{
				OFFSET 2.448110 -6.726130 0.000000
				CHANNELS 3 Zrotation Yrotation Xrotation
				JOINT LeftFoot
				{
					OFFSET 2.562200 -7.039590 0.000000
					CHANNELS 3 Zrotation Yrotation Xrotation
					JOINT LeftToeBase
					{
						OFFSET 0.157640 -0.433110 2.322550
						CHANNELS 3 Zrotation Yrotation Xrotation
						End Site
						{
							OFFSET 0.000000 0.000000 0.000000
						}
					}
				}
			}
		}
	}
	JOINT RHipJoint
	{
		OFFSET 0.000000 0.000000 0.000000
		CHANNELS 3 Zrotation Yrotation Xrotation
		JOINT RightUpLeg
		{
			OFFSET -1.305520 -1.794630 0.839290
			CHANNELS 3 Zrotation Yrotation Xrotation
			JOINT RightLeg
			{
				OFFSET -2.542530 -6.985550 0.000000
				CHANNELS 3 Zrotation Yrotation Xrotation
				JOINT RightFoot
				{
					OFFSET -2.568260 -7.056230 0.000000
					CHANNELS 3 Zrotation Yrotation Xrotation
					JOINT RightToeBase
					{
						OFFSET -0.164730 -0.452590 2.363150
						CHANNELS 3 Zrotation Yrotation Xrotation
						End Site
						{
							OFFSET 0.000000 0.000000 0.000000
						}
					}
				}
			}
		}
	}
	JOINT LowerBack
	{
		OFFSET 0.000000 0.000000 0.000000
		CHANNELS 3 Zrotation Yrotation Xrotation
		JOINT Spine
		{
			OFFSET 0.028270 2.035590 -0.193380
			CHANNELS 3 Zrotation Yrotation Xrotation
			JOINT Spine1
			{
				OFFSET 0.056720 2.048850 -0.042750
				CHANNELS 3 Zrotation Yrotation Xrotation
				JOINT Neck
				{
					OFFSET 0.000000 0.000000 0.000000
					CHANNELS 3 Zrotation Yrotation Xrotation
					JOINT Neck1
					{
						OFFSET -0.054170 1.746240 0.172020
						CHANNELS 3 Zrotation Yrotation Xrotation
						JOINT Head
						{
							OFFSET 0.104070 1.761360 -0.123970
							CHANNELS 3 Zrotation Yrotation Xrotation
							End Site
							{
								OFFSET 0.000000 0.000000 0.000000
							}
						}
					}
				}
				JOINT LeftShoulder
				{
					OFFSET 0.000000 0.000000 0.000000
					CHANNELS 3 Zrotation Yrotation Xrotation
					JOINT LeftArm
					{
						OFFSET 3.362410 1.200890 -0.311210
						CHANNELS 3 Zrotation Yrotation Xrotation
						JOINT LeftForeArm
						{
							OFFSET 4.983000 -0.000000 -0.000000
							CHANNELS 3 Zrotation Yrotation Xrotation
							JOINT LeftHand
							{
								OFFSET 3.483560 -0.000000 -0.000000
								CHANNELS 3 Zrotation Yrotation Xrotation
								JOINT LeftFingerBase
								{
									OFFSET 0.000000 0.000000 0.000000
									CHANNELS 3 Zrotation Yrotation Xrotation
									JOINT LeftHandIndex1
									{
										OFFSET 0.715260 -0.000000 -0.000000
										CHANNELS 3 Zrotation Yrotation Xrotation
										End Site
										{
											OFFSET 0.000000 0.000000 0.000000
										}
									}
								}
								JOINT LThumb
								{
									OFFSET 0.000000 0.000000 0.000000
									CHANNELS 3 Zrotation Yrotation Xrotation
									End Site
									{
										OFFSET 0.000000 0.000000 0.000000
									}
								}
							}
						}
					}
				}
				JOINT RightShoulder
				{
					OFFSET 0.000000 0.000000 0.000000
					CHANNELS 3 Zrotation Yrotation Xrotation
					JOINT RightArm
					{
						OFFSET -3.136600 1.374050 -0.404650
						CHANNELS 3 Zrotation Yrotation Xrotation
						JOINT RightForeArm
						{
							OFFSET -5.241900 -0.000000 -0.000000
							CHANNELS 3 Zrotation Yrotation Xrotation
							JOINT RightHand
							{
								OFFSET -3.444170 -0.000000 -0.000000
								CHANNELS 3 Zrotation Yrotation Xrotation
								JOINT RightFingerBase
								{
									OFFSET 0.000000 0.000000 0.000000
									CHANNELS 3 Zrotation Yrotation Xrotation
									JOINT RightHandIndex1
									{
										OFFSET -0.622530 -0.000000 -0.000000
										CHANNELS 3 Zrotation Yrotation Xrotation
										End Site
										{
											OFFSET 0.000000 0.000000 0.000000
										}
									}
								}
								JOINT RThumb
								{
									OFFSET 0.000000 0.000000 0.000000
									CHANNELS 3 Zrotation Yrotation Xrotation
									End Site
									{
										OFFSET 0.000000 0.000000 0.000000
									}
								}
							}
						}
					}
				}
			}
		}
	}
}
MOTION
Frames: 6
Frame Time: 0.008333
0.459873 1.134367 14.547698 8.538055 3.670498 -2.087477 0.776387 -0.317754 -3.693442 -3.700469 -1.672216 28.331335 1.725520 -2.166985 -2.227896 2.081341 -3.541800 -11.927810 0.287503 -9.147673 -1.949483 1.047970 -1.225480 -2.681612 -13.747750 5.888512 6.588008 -1.905923 -0.680184 3.345787 -2.319139 7.906589 7.289823 0.453974 -0.836478 -40.352951 0.010422 2.878682 -0.738380 1.206403 2.995892 -2.105402 -1.221773 0.175790 -4.973014 2.035824 -1.426662 -1.524336 -1.192471 1.656491 8.581061 1.291502 -0.181282 2.564533 2.272684 0.920989 0.268398 -20.487392 -0.239195 4.087601 0.806632 4.348806 -0.300373 -0.465251 0.802223 -7.915691 13.275103 24.692795 0.016525 -2.270940 0.000000 0.000000 20.575996 -10.944156 33.007004 1.913207 -1.385820 -0.265968 17.069908 5.315284 2.576931 0.201838 7.420792 -4.730205 0.820410 0.829449 -0.852560 -24.686853 -9.239531 36.192886 1.581854 0.000000 0.000000 49.106426 9.815071 0.832641
0.474981 1.120779 14.582919 8.546297 3.755649 -2.124328 0.787232 -0.301905 -3.732091 -3.778944 -1.714045 28.159534 1.727867 -2.217048 -2.233997 2.098432 -3.550148 -11.963152 0.287435 -9.232724 -2.028620 1.061397 -1.236867 -2.697276 -13.792968 5.912927 6.536126 -1.932494 -0.672599 3.140248 -2.346065 7.825626 6.845098 0.446139 -0.898475 -40.488136 0.012173 2.863122 -0.792831 1.193452 2.949871 -2.168781 -1.250550 0.167777 -5.043170 1.968741 -1.467484 -1.602126 -1.195151 1.465600 8.643364 1.252328 -0.230045 2.521754 2.299365 0.887986 0.256378 -20.790829 -0.338101 4.172566 0.867090 4.203989 -0.307873 -0.463837 0.800361 -7.802737 13.231123 24.706434 0.058448 -2.293148 0.000000 0.000000 20.551807 -10.476143 32.490635 1.897576 -1.402047 -0.267699 17.076014 5.317161 2.594784 0.016036 7.462239 -4.814821 0.815374 0.826304 -0.953705 -25.280912 -9.743056 35.763638 1.590049 0.000000 0.000000 48.457047 9.517862 0.394424
0.498680 1.121272 14.664871 8.557850 3.847627 -2.152687 0.803547 -0.277303 -3.762374 -3.834387 -1.733840 28.076729 1.741141 -2.227286 -2.159092 2.117096 -3.537558 -11.992587 0.285587 -9.327373 -2.150451 1.068865 -1.249196 -2.712930 -13.819366 5.938598 6.501961 -1.939641 -0.638783 3.012223 -2.356265 7.807989 6.528591 0.450952 -0.924200 -40.506279 0.040082 2.862283 -0.804335 1.196690 2.927915 -2.190865 -1.254507 0.173154 -5.054241 1.952184 -1.471852 -1.625806 -1.177144 1.321059 8.752534 1.236872 -0.264495 2.500428 2.348258 0.879172 0.249469 -20.927223 -0.380923 4.309756 0.947675 4.078441 -0.311179 -0.463493 0.794408 -7.735300 13.168051 24.669773 0.079551 -2.315766 0.000000 0.000000 20.546810 -10.021961 32.032108 1.893406 -1.408134 -0.265023 17.155754 5.343301 2.647634 -0.124231 7.546289 -4.867655 0.813946 0.826551 -1.022843 -25.715509 -10.164933 35.520622 1.601151 0.000000 0.000000 48.159260 9.346723 0.233141
0.523241 1.120535 14.738979 8.566900 3.937900 -2.180246 0.818546 -0.253271 -3.793479 -3.892246 -1.755459 27.993006 1.755046 -2.232066 -2.075721 2.137637 -3.514281 -12.001185 0.285106 -9.415006 -2.255673 1.082140 -1.257430 -2.720974 -13.822968 5.977568 6.493196 -1.940955 -0.594756 2.913695 -2.360761 7.809262 6.236650 0.456618 -0.945800 -40.514355 0.071331 2.863605 -0.811943 1.200422 2.906275 -2.212166 -1.258453 0.178611 -5.063745 1.937834 -1.474171 -1.637375 -1.152756 1.194726 8.867711 1.221437 -0.297644 2.480962 2.394594 0.869855 0.242685 -21.063978 -0.422858 4.441486 1.024803 3.948992 -0.314883 -0.463217 0.788010 -7.670738 13.109398 24.637629 0.099980 -2.338486 0.000000 0.000000 20.543528 -9.609116 31.619490 1.892253 -1.416402 -0.263232 17.240103 5.370711 2.704159 -0.257274 7.638751 -4.914197 0.813236 0.827665 -1.082284 -26.132326 -10.565061 35.306465 1.611261 0.000000 0.000000 47.834370 9.105293 0.016942
0.543422 1.101553 14.735790 8.557014 4.006226 -2.228174 0.811707 -0.237047 -3.833101 -3.975358 -1.795720 27.862335 1.747239 -2.269069 -2.087215 2.149236 -3.509146 -12.035297 0.276441 -9.556423 -2.500098 1.047435 -1.279559 -2.730961 -13.844086 5.997222 6.457131 -1.941937 -0.558734 2.791486 -2.374513 7.737171 5.877948 0.457693 -0.971616 -40.518917 0.097716 2.861639 -0.838597 1.201043 2.873442 -2.242760 -1.268673 0.181898 -5.067298 1.923289 -1.477410 -1.674491 -1.129613 1.070576 8.937534 1.150966 -0.388266 2.367352 2.329797 0.784872 0.216842 -21.676647 -0.629934 4.098908 0.994339 3.668456 -0.354629 -0.476103 0.755052 -7.969639 12.863012 24.347420 0.006531 -2.384913 0.000000 0.000000 20.051373 -9.911595 30.726786 1.858669 -1.430383 -0.264017 17.321693 5.381731 2.732789 -0.424343 7.702190 -4.985419 0.809914 0.826305 -1.160576 -26.716148 -11.007280 35.158340 1.621064 0.000000 0.000000 47.806549 8.988659 0.097876
0.558990 1.106331 14.824599 8.558973 4.117458 -2.249400 0.826759 -0.208196 -3.858337 -4.027456 -1.812925 27.835308 1.756019 -2.262581 -1.975039 2.164694 -3.457500 -11.983588 0.278959 -9.634433 -2.608315 1.076490 -1.275870 -2.713264 -13.744844 6.077844 6.520490 -1.920823 -0.485186 2.799772 -2.361998 7.887599 5.728200 0.478114 -0.941161 -40.379452 0.147324 2.880870 -0.802564 1.222655 2.879071 -2.219880 -1.245563 0.198809 -5.020449 1.952711 -1.449796 -1.688167 -1.114774 0.977941 9.032566 1.156298 -0.371153 2.426570 2.455745 0.855213 0.229491 -21.374439 -0.509682 4.532143 1.145820 3.655365 -0.328264 -0.468808 0.771383 -7.673191 12.954303 24.494207 0.077252 -2.396603 0.000000 0.000000 20.304253 -9.395669 30.660351 1.891412 -1.458006 -0.264316 17.427006 5.395921 2.760413 -0.586259 7.771713 -5.055542 0.807734 0.824364 -1.242348 -27.349863 -11.440736 34.990822 1.628177 0.000000 0.000000 47.289322 8.545684 -0.397422
